<!-- icon666.com - MILLIONS vector ICONS FREE --><svg id="Capa_1" enable-background="new 0 0 512 512" viewBox="0 0 512 512" xmlns="http://www.w3.org/2000/svg"><g><path d="m251.535 512c-30.718 0-60.609-8.632-86.533-25.001-25.535-16.124-46.064-38.943-59.363-65.988-9.209-18.725-8.123-40.48 2.906-58.195 11.028-17.713 30.068-28.288 50.933-28.288 22.954 0 43.631 12.944 53.96 33.78 7.245 14.614 21.84 23.693 38.09 23.693 12.537 0 24.383-5.528 32.498-15.166 8.213-9.752 11.521-22.161 9.312-34.94-3.47-20.086-21.372-34.739-42.566-34.842-41.512-.202-80.346-16.76-109.349-46.625-28.986-29.846-44.391-69.165-43.376-110.712.938-38.446 17.077-75.305 45.444-103.789 28.369-28.486 65.163-44.774 103.603-45.865 29.013-.818 57.47 6.509 82.331 21.202 24.082 14.232 43.852 34.746 57.171 59.322 10.026 18.501 9.553 40.394-1.268 58.566-10.952 18.394-30.245 29.376-51.608 29.376-22.171 0-42.355-11.841-52.689-30.903-6.308-11.637-18.903-18.519-32.11-17.526-16.347 1.228-29.599 14.48-30.825 30.827-.709 9.445 2.436 18.458 8.855 25.377 6.433 6.934 15.159 10.752 24.573 10.752 43.57 0 84.512 17.075 115.28 48.08 30.764 31 47.523 72.074 47.19 115.657-.328 42.758-17.269 83.067-47.701 113.501-30.434 30.434-70.742 47.376-113.5 47.704-.416.002-.84.003-1.258.003zm-92.058-147.473c-10.587 0-19.869 5.155-25.465 14.144-5.598 8.99-6.127 19.597-1.454 29.1 22.365 45.479 69.505 74.603 120.006 74.225 71.921-.553 130.882-59.514 131.432-131.435.272-35.526-13.396-69.014-38.484-94.296-25.093-25.286-58.472-39.212-93.986-39.212-17.596 0-34.569-7.417-46.566-20.348-11.984-12.917-18.1-30.422-16.778-48.026 2.327-31.02 27.475-56.168 58.495-58.498 24.958-1.868 48.802 11.136 60.732 33.146 5.082 9.376 15.16 15.2 26.3 15.2 10.698 0 20.355-5.504 25.845-14.724 5.438-9.131 5.682-19.673.669-28.922-22.395-41.319-65.429-66.154-112.276-64.831-63.449 1.8-118.361 56.935-119.909 120.397-.815 33.425 11.581 65.061 34.906 89.079 23.344 24.037 54.586 37.363 87.974 37.525 35.76.173 66.033 25.295 71.984 59.735 3.685 21.335-2.12 42.975-15.927 59.371-13.832 16.424-34.041 25.843-55.448 25.843-27.73 0-52.624-15.468-64.969-40.368-5.23-10.551-15.607-17.105-27.081-17.105z"></path></g></svg>